<?xml version="1.0" encoding="utf-8"?>
<!-- Generator: Adobe Illustrator 16.0.0, SVG Export Plug-In . SVG Version: 6.00 Build 0)  -->
<!DOCTYPE svg PUBLIC "-//W3C//DTD SVG 1.1//EN" "http://www.w3.org/Graphics/SVG/1.1/DTD/svg11.dtd">
<svg version="1.1" id="Layer_1" xmlns="http://www.w3.org/2000/svg" xmlns:xlink="http://www.w3.org/1999/xlink" x="0px" y="0px"
	 width="325.002px" height="75.712px" viewBox="0 0 325.002 75.712" enable-background="new 0 0 325.002 75.712"
	 xml:space="preserve">
<g>
	<g>
		<path fill="#FFFFFF" d="M9.732,11.009c0-1.123-0.671-2.022-1.483-2.385V8.212c0.717-0.379,1.163-1.216,1.163-2.225
			c0-1.611-1.244-2.985-3.745-2.985H0.324v11.276h5.484C8.504,14.278,9.732,12.888,9.732,11.009z M2.7,4.959h2.663
			c1.068,0,1.611,0.412,1.611,1.249S6.447,7.471,5.379,7.471H2.7V4.959z M2.7,12.272V9.445H5.49c1.196,0,1.802,0.474,1.802,1.437
			c0,0.948-0.638,1.39-1.834,1.39H2.7z M16.775,14.483c2.663,0,4.416-1.563,4.75-3.807h-2.471c-0.239,1.074-1.052,1.707-2.28,1.707
			c-2.041,0-3.012-1.658-3.012-3.744s0.971-3.743,3.012-3.743c1.163,0,1.883,0.458,2.152,1.39h2.486
			c-0.381-2.069-2.12-3.492-4.639-3.492c-3.46,0-5.452,2.386-5.452,5.845S13.299,14.483,16.775,14.483z M32.207,12.179h-6.218V9.524
			h4.702V7.471h-4.702V5.102h6.042v-2.1h-8.417v11.276h8.593V12.179z M39.426,3.002h-5.196v11.276h2.375v-4.043h2.821
			c2.614,0,4.114-1.358,4.114-3.648C43.54,4.327,42.04,3.002,39.426,3.002z M39.091,8.166h-2.487V5.071h2.487
			c1.465,0,2.008,0.535,2.008,1.546C41.1,7.612,40.557,8.166,39.091,8.166z M50.631,14.483c3.62,0,5.547-2.527,5.547-5.843
			c0-3.318-1.928-5.845-5.547-5.845s-5.549,2.527-5.549,5.845C45.082,11.956,47.012,14.483,50.631,14.483z M50.631,4.897
			c2.136,0,3.109,1.658,3.109,3.743s-0.973,3.744-3.109,3.744c-2.104,0-3.109-1.658-3.109-3.744S48.528,4.897,50.631,4.897z
			 M63.191,14.483c2.663,0,4.417-1.563,4.752-3.807h-2.472c-0.239,1.074-1.052,1.707-2.28,1.707c-2.041,0-3.012-1.658-3.012-3.744
			s0.971-3.743,3.012-3.743c1.164,0,1.883,0.458,2.152,1.39h2.487c-0.381-2.069-2.12-3.492-4.639-3.492
			c-3.459,0-5.452,2.386-5.452,5.845S59.715,14.483,63.191,14.483z M74.94,14.483c2.661,0,4.416-1.563,4.75-3.807h-2.473
			c-0.239,1.074-1.052,1.707-2.278,1.707c-2.041,0-3.014-1.658-3.014-3.744s0.973-3.743,3.014-3.743c1.163,0,1.881,0.458,2.152,1.39
			h2.487c-0.383-2.069-2.12-3.492-4.639-3.492c-3.459,0-5.454,2.386-5.454,5.845S71.464,14.483,74.94,14.483z M91.709,14.278V3.002
			h-3.204l-4.098,7.866h-0.414V3.002h-2.217v11.276h3.093l4.193-8.04h0.416v8.04H91.709z M101.622,6.238h0.416v8.04h2.231V3.002
			h-3.204l-4.096,7.866h-0.416V3.002h-2.215v11.276h3.093L101.622,6.238z M99.295,2.433c1.802,0,2.886-0.917,3.014-2.433h-1.755
			c-0.079,0.554-0.493,0.979-1.259,0.979c-0.782,0-1.196-0.425-1.259-0.979h-1.755C96.409,1.516,97.493,2.433,99.295,2.433z
			 M111.808,14.483c2.661,0,4.417-1.563,4.751-3.807h-2.471c-0.239,1.074-1.054,1.707-2.28,1.707c-2.041,0-3.014-1.658-3.014-3.744
			s0.973-3.743,3.014-3.743c1.164,0,1.881,0.458,2.152,1.39h2.487c-0.383-2.069-2.12-3.492-4.64-3.492
			c-3.459,0-5.452,2.386-5.452,5.845S108.332,14.483,111.808,14.483z M128.259,3.002h-2.457l-2.087,4.406h-2.695V3.002h-2.375
			v11.276h2.375V9.54h2.711l2.215,4.738h2.456l-2.695-5.796L128.259,3.002z M137.758,6.238v8.04h2.231V3.002h-3.204l-4.098,7.866
			h-0.414V3.002h-2.217v11.276h3.093l4.193-8.04H137.758z M149.904,6.238h0.413v8.04h2.233V3.002h-3.206l-4.096,7.866h-0.416V3.002
			h-2.215v11.276h3.093L149.904,6.238z M147.575,2.433c1.802,0,2.886-0.917,3.014-2.433h-1.753
			c-0.081,0.554-0.495,0.979-1.261,0.979c-0.78,0-1.196-0.425-1.258-0.979h-1.755C144.689,1.516,145.773,2.433,147.575,2.433z
			 M164.154,13h0.142v1.484h2.264V13h0.16c3.061,0,5.185-1.469,5.185-4.518c0-2.985-2.124-4.518-5.185-4.518h-0.16V2.637h-2.264
			v1.328h-0.142c-3.063,0-5.199,1.532-5.199,4.518C158.955,11.53,161.045,13,164.154,13z M166.56,5.971h0.16
			c1.706,0,2.805,0.742,2.805,2.511c0,1.721-1.099,2.511-2.805,2.511h-0.16V5.971z M164.154,5.971h0.142v5.022h-0.142
			c-1.723,0-2.824-0.791-2.824-2.511C161.331,6.729,162.447,5.971,164.154,5.971z M182.5,12.179h-6.219V9.524h4.702V7.471h-4.702
			V5.102h6.044v-2.1h-8.419v11.276h8.594V12.179z M189.431,14.483c2.663,0,4.419-1.563,4.751-3.807h-2.469
			c-0.239,1.074-1.054,1.707-2.282,1.707c-2.038,0-3.012-1.658-3.012-3.744s0.974-3.743,3.012-3.743c1.168,0,1.881,0.458,2.157,1.39
			h2.484c-0.385-2.069-2.12-3.492-4.642-3.492c-3.457,0-5.447,2.386-5.447,5.845S185.957,14.483,189.431,14.483z M198.742,14.278
			h2.375V5.071h3.539V3.002h-9.453v2.069h3.539V14.278z M213.517,6.238h0.413v8.04h2.238V3.002h-3.211l-4.094,7.866h-0.414V3.002
			h-2.217v11.276h3.093L213.517,6.238z M226.715,8.624V8.212c0.721-0.379,1.167-1.216,1.167-2.225c0-1.611-1.244-2.985-3.749-2.985
			h-5.339v11.276h5.48c2.699,0,3.924-1.39,3.924-3.269C228.198,9.887,227.529,8.987,226.715,8.624z M221.17,4.959h2.658
			c1.07,0,1.613,0.412,1.613,1.249s-0.526,1.263-1.597,1.263h-2.675V4.959z M223.926,12.272h-2.756V9.445h2.788
			c1.196,0,1.8,0.474,1.8,1.437C225.758,11.83,225.121,12.272,223.926,12.272z M237.825,14.278h2.407l-3.636-11.276h-3.681
			l-3.619,11.276h2.343l0.928-3.048h4.333L237.825,14.278z M233.168,9.177l1.199-3.917h0.701l1.196,3.917H233.168z M245.287,8.149
			V5.102h3.697v9.177h2.392V3.002h-8.338v4.99c0,3.618-0.527,3.98-1.788,3.98h-0.397v2.306h0.414
			C243.994,14.278,245.287,13.379,245.287,8.149z M263.346,10.535c0-2.323-1.528-3.711-4.212-3.711h-2.757V3.002h-2.375v11.276
			h5.132C261.817,14.278,263.346,12.888,263.346,10.535z M256.377,12.209V8.894h2.359c1.598,0,2.169,0.567,2.169,1.642
			s-0.571,1.674-2.169,1.674H256.377z M277.277,7.392h-5.039v-4.39h-2.375v11.276h2.375V9.556h5.039v4.722h2.375V3.002h-2.375V7.392
			z M288.846,11.23l0.924,3.048h2.408l-3.632-11.276h-3.681l-3.624,11.276h2.343l0.929-3.048H288.846z M286.313,5.26h0.701
			l1.199,3.917h-3.097L286.313,5.26z M294.221,14.278h2.375l5.452-11.276h-2.408l-2.407,5.055h-0.446l-2.663-5.055h-2.488
			l4.207,7.896L294.221,14.278z M306.032,9.54h2.708l2.217,4.738h2.452l-2.691-5.796l2.55-5.48h-2.452l-2.092,4.406h-2.691V3.002
			h-2.376v11.276h2.376V9.54z M321.796,3.002l-4.099,7.866h-0.413V3.002h-2.217v11.276h3.093l4.191-8.04h0.413v8.04h2.237V3.002
			H321.796z M27.657,61.104h-1.496L11.096,33.189H0v41.177h7.819V46.455h1.496l15.064,27.911h11.096V33.189h-7.819V61.104z
			 M57.155,33.189L44.104,74.366h8.451l3.336-11.13h15.638l3.336,11.13h8.683L70.437,33.189H57.155z M58.076,55.737l4.311-14.301
			h2.53l4.313,14.301H58.076z M115.764,59.024c0,5.075-3.048,8.419-8.624,8.419c-5.521,0-8.625-3.344-8.625-8.419V33.189h-8.567
			v26.009c0,10.207,6.153,15.914,17.134,15.914c11.098,0,17.25-5.707,17.25-15.914V33.189h-8.567V59.024z M171.313,33.189h-10.006
			L144.517,50.2V33.189h-8.567v41.177h8.567V61.104l7.417-7.441h1.494l10.407,20.704h9.43l-14.26-28.261L171.313,33.189z
			 M191.782,33.189L178.73,74.366h8.455l3.332-11.13h15.642l3.336,11.13h8.683l-13.108-41.177H191.782z M192.706,55.737
			l4.313-14.301h2.529l4.313,14.301H192.706z M308.505,33.189h-8.569v16.625h-16.238v7.925h16.238v16.627h8.569V57.739h16.246
			v-7.925h-16.246V33.189z M255.551,30.883c-12.347,0-22.351,10.035-22.351,22.414s10.004,22.415,22.351,22.415
			c12.339,0,22.342-10.036,22.342-22.415C277.893,40.92,267.89,30.883,255.551,30.883z M273.71,44.578
			c0.098,0.198,0.013,0.434-0.187,0.531l-7.767,3.729c0.154,0.349,0.292,0.701,0.409,1.063l7.365-2.067
			c0.211-0.057,0.43,0.064,0.491,0.275c0.061,0.215-0.062,0.434-0.272,0.494l-7.369,2.067c0.065,0.284,0.126,0.567,0.175,0.859
			l4.9-0.607c0.219-0.033,0.414,0.125,0.438,0.344c0.032,0.215-0.126,0.418-0.345,0.442l-4.885,0.608
			c0.032,0.348,0.057,0.705,0.057,1.062c0,0.073-0.008,0.146-0.012,0.227l5.549,0.349c0.219,0.013,0.381,0.203,0.373,0.422
			c-0.017,0.211-0.19,0.373-0.397,0.373h-0.028l-5.537-0.349c-0.053,0.592-0.158,1.167-0.304,1.734l8.074,2.425
			c0.211,0.061,0.328,0.283,0.268,0.494c-0.057,0.17-0.211,0.283-0.381,0.283c-0.041,0-0.077-0.008-0.113-0.016l-8.063-2.424
			c-0.102,0.316-0.215,0.624-0.345,0.924l5.383,2.603c0.194,0.097,0.276,0.332,0.183,0.535c-0.068,0.138-0.211,0.223-0.356,0.223
			c-0.062,0-0.118-0.012-0.175-0.036l-5.383-2.606c-0.138,0.268-0.292,0.526-0.45,0.782l1.626,1.114
			c0.178,0.126,0.223,0.373,0.102,0.556c-0.077,0.113-0.203,0.17-0.329,0.17c-0.081,0-0.157-0.02-0.227-0.068l-1.617-1.115
			c-0.256,0.349-0.527,0.682-0.819,0.997l4.18,4.208c0.154,0.154,0.154,0.405,0,0.56c-0.081,0.081-0.179,0.121-0.284,0.121
			c-0.097,0-0.202-0.04-0.279-0.121l-4.175-4.2c-0.369,0.349-0.759,0.669-1.168,0.965l3.908,5.999
			c0.117,0.183,0.068,0.43-0.118,0.552c-0.064,0.04-0.142,0.064-0.215,0.064c-0.13,0-0.255-0.064-0.332-0.182l-3.907-6
			c-0.309,0.191-0.629,0.361-0.953,0.523l2.781,6.404c0.089,0.203-0.005,0.438-0.203,0.527c-0.053,0.023-0.105,0.032-0.158,0.032
			c-0.154,0-0.3-0.089-0.365-0.239l-2.784-6.4c-0.341,0.138-0.697,0.256-1.054,0.356l2.043,8.342
			c0.053,0.215-0.077,0.43-0.292,0.487c-0.032,0.008-0.065,0.008-0.094,0.008c-0.178,0-0.34-0.122-0.385-0.3l-2.043-8.334
			c-0.316,0.064-0.641,0.113-0.973,0.149l0.154,1.813c0.016,0.219-0.146,0.409-0.365,0.43h-0.032c-0.203,0-0.381-0.158-0.397-0.365
			l-0.149-1.815c-0.179,0.008-0.354,0.024-0.531,0.024c-0.081,0-0.154-0.009-0.231-0.009l-0.279,5.115
			c-0.017,0.211-0.19,0.377-0.397,0.377h-0.024c-0.219-0.012-0.389-0.198-0.373-0.417l0.284-5.115
			c-0.381-0.037-0.762-0.09-1.127-0.162l-2.079,8.998c-0.045,0.187-0.207,0.313-0.386,0.313c-0.032,0-0.064-0.004-0.093-0.013
			c-0.215-0.048-0.345-0.259-0.296-0.478l2.075-9.007c-0.462-0.13-0.916-0.276-1.358-0.458l-2.824,6.246
			c-0.065,0.146-0.211,0.235-0.365,0.235c-0.053,0-0.105-0.013-0.162-0.037c-0.199-0.093-0.288-0.328-0.194-0.526l2.829-6.255
			c-0.3-0.153-0.592-0.316-0.876-0.494l-4.248,6.412c-0.072,0.114-0.202,0.175-0.332,0.175c-0.073,0-0.15-0.021-0.219-0.065
			c-0.179-0.121-0.231-0.368-0.109-0.555l4.244-6.413c-0.52-0.377-1.014-0.794-1.46-1.256l-5.455,5.014
			c-0.073,0.068-0.171,0.105-0.268,0.105c-0.105,0-0.215-0.045-0.292-0.13c-0.146-0.162-0.138-0.413,0.024-0.563l5.455-5.018
			c-0.166-0.195-0.324-0.406-0.478-0.616l-4.427,3.048c-0.073,0.049-0.146,0.073-0.227,0.073c-0.126,0-0.252-0.062-0.324-0.171
			c-0.13-0.187-0.082-0.43,0.101-0.555l4.431-3.053c-0.162-0.268-0.324-0.543-0.47-0.822l-7.706,3.7
			c-0.053,0.024-0.109,0.041-0.17,0.041c-0.15,0-0.288-0.085-0.357-0.228c-0.097-0.202-0.012-0.438,0.187-0.535l7.706-3.696
			c-0.154-0.349-0.288-0.714-0.405-1.078l-7.313,2.051c-0.032,0.008-0.073,0.017-0.105,0.017c-0.175,0-0.332-0.113-0.381-0.292
			c-0.061-0.211,0.061-0.43,0.275-0.49l7.329-2.06c-0.065-0.283-0.122-0.571-0.162-0.863l-4.877,0.604
			c-0.012,0.004-0.028,0.004-0.049,0.004c-0.198,0-0.368-0.146-0.393-0.348c-0.024-0.22,0.13-0.422,0.349-0.446l4.872-0.608
			c-0.024-0.3-0.045-0.596-0.045-0.899c0-0.13,0.013-0.26,0.021-0.385l-5.558-0.353c-0.219-0.009-0.385-0.203-0.368-0.422
			c0.012-0.219,0.198-0.385,0.417-0.373l5.549,0.353c0.065-0.592,0.179-1.163,0.333-1.723l-8.111-2.437
			c-0.21-0.061-0.328-0.287-0.268-0.498c0.062-0.211,0.284-0.328,0.495-0.268l8.11,2.44c0.109-0.309,0.228-0.612,0.357-0.908
			l-5.44-2.635c-0.202-0.098-0.283-0.332-0.187-0.531c0.094-0.198,0.333-0.279,0.527-0.183l5.448,2.631
			c0.138-0.264,0.291-0.515,0.453-0.766l-1.686-1.159c-0.183-0.13-0.231-0.373-0.105-0.56c0.121-0.179,0.373-0.228,0.551-0.098
			l1.694,1.164c0.26-0.341,0.527-0.669,0.819-0.978l-4.256-4.276c-0.154-0.156-0.154-0.409,0.004-0.563
			c0.153-0.156,0.409-0.156,0.563,0l4.256,4.28c0.364-0.332,0.746-0.648,1.151-0.932l-3.973-6.109
			c-0.121-0.184-0.069-0.432,0.113-0.553c0.187-0.12,0.43-0.067,0.552,0.118l3.98,6.113c0.3-0.183,0.616-0.351,0.937-0.505
			l-2.842-6.536c-0.09-0.203,0.008-0.438,0.207-0.525c0.198-0.087,0.434,0.004,0.522,0.205l2.837,6.538
			c0.341-0.134,0.682-0.249,1.038-0.349l-2.083-8.49c-0.049-0.215,0.081-0.43,0.291-0.48c0.211-0.055,0.43,0.077,0.482,0.29
			l2.08,8.482c0.308-0.063,0.624-0.107,0.948-0.146l-0.162-1.964c-0.024-0.219,0.142-0.411,0.36-0.43
			c0.219-0.02,0.41,0.145,0.426,0.365l0.162,1.97c0.179-0.006,0.349-0.026,0.527-0.026c0.072,0,0.142,0.01,0.215,0.013l0.296-5.276
			c0.008-0.219,0.198-0.387,0.413-0.375c0.219,0.012,0.39,0.201,0.377,0.419l-0.292,5.271c0.373,0.032,0.742,0.085,1.099,0.154
			l2.116-9.153c0.049-0.215,0.259-0.347,0.474-0.298c0.215,0.048,0.35,0.263,0.301,0.478l-2.112,9.159
			c0.454,0.121,0.9,0.266,1.329,0.441l2.887-6.382c0.093-0.201,0.328-0.29,0.527-0.197c0.202,0.089,0.291,0.327,0.198,0.527
			l-2.891,6.385c0.3,0.147,0.584,0.306,0.864,0.476l4.316-6.521c0.121-0.183,0.369-0.233,0.551-0.112
			c0.183,0.124,0.235,0.369,0.114,0.553l-4.317,6.519c0.515,0.368,1.01,0.773,1.455,1.224L269,40.389
			c0.162-0.15,0.413-0.138,0.56,0.022c0.153,0.164,0.142,0.415-0.021,0.563l-5.533,5.091c0.162,0.194,0.32,0.394,0.475,0.6
			l4.507-3.106c0.183-0.124,0.426-0.079,0.552,0.104c0.126,0.182,0.077,0.43-0.102,0.555l-4.499,3.098
			c0.166,0.263,0.328,0.526,0.474,0.807l7.771-3.729C273.378,44.294,273.612,44.379,273.71,44.578z"/>
	</g>
</g>
</svg>
